<svg width="14" height="17" viewBox="0 0 14 17" fill="none" xmlns="http://www.w3.org/2000/svg">
<path d="M13.5621 5.95739C13.4857 6.00195 11.6671 6.94248 11.6671 9.02785C11.7528 11.4061 13.9621 12.2401 14 12.2401C13.9621 12.2847 13.6665 13.3763 12.7907 14.5205C12.0956 15.5062 11.3242 16.5 10.1528 16.5C9.0385 16.5 8.6385 15.8431 7.35278 15.8431C5.97203 15.8431 5.58135 16.5 4.5242 16.5C3.35277 16.5 2.52419 15.453 1.79127 14.4766C0.839096 13.1986 0.0297778 11.1931 0.00120634 9.26747C-0.0180484 8.24707 0.19189 7.24403 0.72481 6.39206C1.47699 5.20265 2.81985 4.39524 4.28631 4.36862C5.40992 4.33331 6.40992 5.08747 7.09563 5.08747C7.75278 5.08747 8.98135 4.36862 10.3714 4.36862C10.9714 4.36919 12.5714 4.53762 13.5621 5.95739ZM7.0006 4.16488C6.8006 3.23303 7.35278 2.30119 7.86706 1.70677C8.52421 0.987918 9.5621 0.5 10.4571 0.5C10.5143 1.43185 10.1522 2.34575 9.50496 3.01136C8.92421 3.73021 7.92421 4.27138 7.0006 4.16488Z" fill="white"/>
</svg>
