<svg width="250" height="61" viewBox="0 0 250 61" fill="none" xmlns="http://www.w3.org/2000/svg">
<path d="M0.545455 47V0.454544H19.1818C22.6061 0.454544 25.4621 0.96212 27.75 1.97727C30.0379 2.99242 31.7576 4.40151 32.9091 6.20454C34.0606 7.99242 34.6364 10.053 34.6364 12.3864C34.6364 14.2045 34.2727 15.803 33.5455 17.1818C32.8182 18.5455 31.8182 19.6667 30.5455 20.5455C29.2879 21.4091 27.8485 22.0227 26.2273 22.3864V22.8409C28 22.9167 29.6591 23.4167 31.2045 24.3409C32.7652 25.2652 34.0303 26.5606 35 28.2273C35.9697 29.8788 36.4545 31.8485 36.4545 34.1364C36.4545 36.6061 35.8409 38.8106 34.6136 40.75C33.4015 42.6742 31.6061 44.197 29.2273 45.3182C26.8485 46.4394 23.9167 47 20.4318 47H0.545455ZM10.3864 38.9545H18.4091C21.1515 38.9545 23.1515 38.4318 24.4091 37.3864C25.6667 36.3258 26.2955 34.9167 26.2955 33.1591C26.2955 31.8712 25.9848 30.7348 25.3636 29.75C24.7424 28.7652 23.8561 27.9924 22.7045 27.4318C21.5682 26.8712 20.2121 26.5909 18.6364 26.5909H10.3864V38.9545ZM10.3864 19.9318H17.6818C19.0303 19.9318 20.2273 19.697 21.2727 19.2273C22.3333 18.7424 23.1667 18.0606 23.7727 17.1818C24.3939 16.303 24.7045 15.25 24.7045 14.0227C24.7045 12.3409 24.1061 10.9848 22.9091 9.95454C21.7273 8.92424 20.0455 8.40909 17.8636 8.40909H10.3864V19.9318ZM65.0625 32.1364V12.0909H74.7443V47H65.4489V40.6591H65.0852C64.2973 42.7045 62.9867 44.3485 61.1534 45.5909C59.3352 46.8333 57.1155 47.4545 54.4943 47.4545C52.161 47.4545 50.108 46.9242 48.3352 45.8636C46.5625 44.803 45.1761 43.2955 44.1761 41.3409C43.1913 39.3864 42.6913 37.0455 42.6761 34.3182V12.0909H52.358V32.5909C52.3731 34.6515 52.9261 36.2803 54.017 37.4773C55.108 38.6742 56.5701 39.2727 58.4034 39.2727C59.5701 39.2727 60.661 39.0076 61.6761 38.4773C62.6913 37.9318 63.5095 37.1288 64.1307 36.0682C64.767 35.0076 65.0777 33.697 65.0625 32.1364ZM111.534 22.0455L102.67 22.5909C102.519 21.8333 102.193 21.1515 101.693 20.5455C101.193 19.9242 100.534 19.4318 99.7159 19.0682C98.9129 18.6894 97.9508 18.5 96.8295 18.5C95.3295 18.5 94.0644 18.8182 93.0341 19.4545C92.0038 20.0758 91.4886 20.9091 91.4886 21.9545C91.4886 22.7879 91.822 23.4924 92.4886 24.0682C93.1553 24.6439 94.2992 25.1061 95.9205 25.4545L102.239 26.7273C105.633 27.4242 108.163 28.5455 109.83 30.0909C111.496 31.6364 112.33 33.6667 112.33 36.1818C112.33 38.4697 111.655 40.4773 110.307 42.2045C108.973 43.9318 107.14 45.2803 104.807 46.25C102.489 47.2045 99.8144 47.6818 96.7841 47.6818C92.1629 47.6818 88.4811 46.7197 85.7386 44.7955C83.0114 42.8561 81.4129 40.2197 80.9432 36.8864L90.4659 36.3864C90.7538 37.7955 91.4508 38.8712 92.5568 39.6136C93.6629 40.3409 95.0795 40.7045 96.8068 40.7045C98.5038 40.7045 99.8674 40.3788 100.898 39.7273C101.943 39.0606 102.473 38.2045 102.489 37.1591C102.473 36.2803 102.102 35.5606 101.375 35C100.648 34.4242 99.5265 33.9848 98.0114 33.6818L91.9659 32.4773C88.5568 31.7955 86.0189 30.6136 84.3523 28.9318C82.7008 27.25 81.875 25.1061 81.875 22.5C81.875 20.2576 82.4811 18.3258 83.6932 16.7045C84.9205 15.0833 86.6402 13.8333 88.8523 12.9545C91.0795 12.0758 93.6856 11.6364 96.6705 11.6364C101.08 11.6364 104.549 12.5682 107.08 14.4318C109.625 16.2955 111.11 18.8333 111.534 22.0455Z" fill="white"/>
<path d="M129.085 47L115.767 0.454544H126.517L134.222 32.7955H134.608L143.108 0.454544H152.312L160.79 32.8636H161.199L168.903 0.454544H179.653L166.335 47H156.744L147.881 16.5682H147.517L138.676 47H129.085ZM190.943 47.6591C188.716 47.6591 186.731 47.2727 184.989 46.5C183.246 45.7121 181.867 44.553 180.852 43.0227C179.852 41.4773 179.352 39.553 179.352 37.25C179.352 35.3106 179.708 33.6818 180.42 32.3636C181.133 31.0455 182.102 29.9848 183.33 29.1818C184.557 28.3788 185.951 27.7727 187.511 27.3636C189.087 26.9545 190.739 26.6667 192.466 26.5C194.496 26.2879 196.133 26.0909 197.375 25.9091C198.617 25.7121 199.519 25.4242 200.08 25.0455C200.64 24.6667 200.92 24.1061 200.92 23.3636V23.2273C200.92 21.7879 200.466 20.6742 199.557 19.8864C198.663 19.0985 197.39 18.7045 195.739 18.7045C193.996 18.7045 192.61 19.0909 191.58 19.8636C190.549 20.6212 189.867 21.5758 189.534 22.7273L180.58 22C181.034 19.8788 181.928 18.0455 183.261 16.5C184.595 14.9394 186.314 13.7424 188.42 12.9091C190.542 12.0606 192.996 11.6364 195.784 11.6364C197.723 11.6364 199.58 11.8636 201.352 12.3182C203.14 12.7727 204.723 13.4773 206.102 14.4318C207.496 15.3864 208.595 16.6136 209.398 18.1136C210.201 19.5985 210.602 21.3788 210.602 23.4545V47H201.42V42.1591H201.148C200.587 43.25 199.837 44.2121 198.898 45.0455C197.958 45.8636 196.83 46.5076 195.511 46.9773C194.193 47.4318 192.67 47.6591 190.943 47.6591ZM193.716 40.9773C195.14 40.9773 196.398 40.697 197.489 40.1364C198.58 39.5606 199.436 38.7879 200.057 37.8182C200.678 36.8485 200.989 35.75 200.989 34.5227V30.8182C200.686 31.0152 200.269 31.197 199.739 31.3636C199.223 31.5152 198.64 31.6591 197.989 31.7955C197.337 31.9167 196.686 32.0303 196.034 32.1364C195.383 32.2273 194.792 32.3106 194.261 32.3864C193.125 32.553 192.133 32.8182 191.284 33.1818C190.436 33.5455 189.777 34.0379 189.307 34.6591C188.837 35.2652 188.602 36.0227 188.602 36.9318C188.602 38.25 189.08 39.2576 190.034 39.9545C191.004 40.6364 192.231 40.9773 193.716 40.9773ZM222.841 60.0909C221.614 60.0909 220.462 59.9924 219.386 59.7955C218.326 59.6136 217.447 59.3788 216.75 59.0909L218.932 51.8636C220.068 52.2121 221.091 52.4015 222 52.4318C222.924 52.4621 223.72 52.25 224.386 51.7955C225.068 51.3409 225.621 50.5682 226.045 49.4773L226.614 48L214.091 12.0909H224.273L231.5 37.7273H231.864L239.159 12.0909H249.409L235.841 50.7727C235.189 52.6515 234.303 54.2879 233.182 55.6818C232.076 57.0909 230.674 58.1742 228.977 58.9318C227.28 59.7045 225.235 60.0909 222.841 60.0909Z" fill="#FF711D"/>
</svg>
