<svg width="157" height="39" viewBox="0 0 157 39" fill="none" xmlns="http://www.w3.org/2000/svg">
<path d="M0.653409 30V0.90909H12.3011C14.4413 0.90909 16.2263 1.22633 17.6562 1.8608C19.0862 2.49527 20.161 3.37595 20.8807 4.50284C21.6004 5.62027 21.9602 6.90814 21.9602 8.36648C21.9602 9.50284 21.733 10.5019 21.2784 11.3636C20.8239 12.2159 20.1989 12.9167 19.4034 13.4659C18.6174 14.0057 17.7178 14.3892 16.7045 14.6165V14.9006C17.8125 14.9479 18.8494 15.2604 19.8153 15.8381C20.7907 16.4157 21.5814 17.2254 22.1875 18.267C22.7936 19.2992 23.0966 20.5303 23.0966 21.9602C23.0966 23.5038 22.7131 24.8816 21.946 26.0938C21.1884 27.2964 20.0663 28.2481 18.5795 28.9489C17.0928 29.6496 15.2604 30 13.0824 30H0.653409ZM6.80398 24.9716H11.8182C13.5322 24.9716 14.7822 24.6449 15.5682 23.9915C16.3542 23.3286 16.7472 22.4479 16.7472 21.3494C16.7472 20.5445 16.553 19.8343 16.1648 19.2188C15.7765 18.6032 15.2225 18.1203 14.5028 17.7699C13.7926 17.4195 12.9451 17.2443 11.9602 17.2443H6.80398V24.9716ZM6.80398 13.0824H11.3636C12.2064 13.0824 12.9545 12.9356 13.608 12.642C14.2708 12.339 14.7917 11.9129 15.1705 11.3636C15.5587 10.8144 15.7528 10.1562 15.7528 9.3892C15.7528 8.33807 15.3788 7.49053 14.6307 6.84659C13.892 6.20265 12.8409 5.88068 11.4773 5.88068H6.80398V13.0824ZM40.9766 20.7102V8.18182H47.0277V30H41.218V26.0369H40.9908C40.4983 27.3153 39.6792 28.3428 38.5334 29.1193C37.397 29.8958 36.0097 30.2841 34.3714 30.2841C32.9131 30.2841 31.63 29.9527 30.522 29.2898C29.4141 28.6269 28.5476 27.6847 27.9226 26.4631C27.3071 25.2415 26.9946 23.7784 26.9851 22.0739V8.18182H33.0362V20.9943C33.0457 22.2822 33.3913 23.3002 34.0732 24.0483C34.755 24.7964 35.6688 25.1705 36.8146 25.1705C37.5438 25.1705 38.2256 25.0047 38.8601 24.6733C39.4946 24.3324 40.0059 23.8305 40.3942 23.1676C40.7919 22.5047 40.986 21.6856 40.9766 20.7102ZM70.0213 14.4034L64.4815 14.7443C64.3868 14.2708 64.1832 13.8447 63.8707 13.4659C63.5582 13.0777 63.1463 12.7699 62.6349 12.5426C62.133 12.3059 61.5317 12.1875 60.831 12.1875C59.8935 12.1875 59.1027 12.3864 58.4588 12.7841C57.8149 13.1723 57.4929 13.6932 57.4929 14.3466C57.4929 14.8674 57.7012 15.3078 58.1179 15.6676C58.5346 16.0275 59.2495 16.3163 60.2628 16.5341L64.2116 17.3295C66.3329 17.7652 67.9143 18.4659 68.956 19.4318C69.9976 20.3977 70.5185 21.6667 70.5185 23.2386C70.5185 24.6686 70.0971 25.9233 69.2543 27.0028C68.4209 28.0824 67.2751 28.9252 65.8168 29.5312C64.3679 30.1278 62.6965 30.4261 60.8026 30.4261C57.9143 30.4261 55.6132 29.8248 53.8991 28.6222C52.1946 27.41 51.1955 25.7623 50.902 23.679L56.8537 23.3665C57.0336 24.2472 57.4692 24.9195 58.1605 25.3835C58.8518 25.8381 59.7372 26.0653 60.8168 26.0653C61.8774 26.0653 62.7296 25.8617 63.3736 25.4545C64.027 25.0379 64.3584 24.5028 64.3679 23.8494C64.3584 23.3002 64.1264 22.8504 63.6719 22.5C63.2173 22.1402 62.5166 21.8655 61.5696 21.6761L57.7912 20.9233C55.6605 20.4972 54.0743 19.7585 53.0327 18.7074C52.0005 17.6562 51.4844 16.3163 51.4844 14.6875C51.4844 13.286 51.8632 12.0786 52.6207 11.0653C53.3878 10.0521 54.4626 9.27083 55.8452 8.72159C57.2372 8.17235 58.866 7.89773 60.7315 7.89773C63.4872 7.89773 65.6558 8.48011 67.2372 9.64489C68.8281 10.8097 69.7562 12.3958 70.0213 14.4034Z" fill="white"/>
<path d="M80.9908 30L72.6669 0.90909H79.3857L84.201 21.1222H84.4425L89.755 0.90909H95.5078L100.806 21.1648H101.062L105.877 0.90909H112.596L104.272 30H98.2777L92.7379 10.9801H92.5107L86.9851 30H80.9908ZM119.652 30.4119C118.26 30.4119 117.019 30.1705 115.93 29.6875C114.841 29.1951 113.98 28.4706 113.345 27.5142C112.72 26.5483 112.408 25.3456 112.408 23.9062C112.408 22.6941 112.63 21.6761 113.075 20.8523C113.52 20.0284 114.126 19.3655 114.893 18.8636C115.661 18.3617 116.532 17.983 117.507 17.7273C118.492 17.4716 119.524 17.2917 120.604 17.1875C121.873 17.0549 122.895 16.9318 123.672 16.8182C124.448 16.6951 125.012 16.5152 125.362 16.2784C125.713 16.0417 125.888 15.6913 125.888 15.2273V15.142C125.888 14.2424 125.604 13.5464 125.036 13.054C124.477 12.5616 123.681 12.3153 122.649 12.3153C121.56 12.3153 120.694 12.5568 120.05 13.0398C119.406 13.5133 118.98 14.1098 118.771 14.8295L113.175 14.375C113.459 13.0492 114.018 11.9034 114.851 10.9375C115.684 9.96212 116.759 9.21401 118.075 8.69318C119.401 8.16288 120.935 7.89773 122.678 7.89773C123.89 7.89773 125.05 8.03977 126.158 8.32386C127.275 8.60795 128.265 9.0483 129.126 9.64489C129.998 10.2415 130.684 11.0085 131.186 11.946C131.688 12.8741 131.939 13.9867 131.939 15.2841V30H126.2V26.9744H126.03C125.679 27.6562 125.211 28.2576 124.624 28.7784C124.036 29.2898 123.331 29.6922 122.507 29.9858C121.683 30.2699 120.732 30.4119 119.652 30.4119ZM121.385 26.2358C122.275 26.2358 123.061 26.0606 123.743 25.7102C124.425 25.3504 124.96 24.8674 125.348 24.2614C125.736 23.6553 125.93 22.9687 125.93 22.2017V19.8864C125.741 20.0095 125.481 20.1231 125.149 20.2273C124.827 20.322 124.463 20.4119 124.055 20.4972C123.648 20.5729 123.241 20.6439 122.834 20.7102C122.427 20.767 122.057 20.8191 121.726 20.8665C121.016 20.9706 120.395 21.1364 119.865 21.3636C119.335 21.5909 118.923 21.8987 118.629 22.2869C118.336 22.6657 118.189 23.1392 118.189 23.7074C118.189 24.5312 118.487 25.161 119.084 25.5966C119.69 26.0227 120.457 26.2358 121.385 26.2358ZM139.588 38.1818C138.821 38.1818 138.101 38.1203 137.429 37.9972C136.766 37.8835 136.217 37.7367 135.781 37.5568L137.145 33.0398C137.855 33.2576 138.494 33.3759 139.062 33.3949C139.64 33.4138 140.137 33.2813 140.554 32.9972C140.98 32.7131 141.326 32.2301 141.591 31.5483L141.946 30.625L134.119 8.18182H140.483L145 24.2045H145.227L149.787 8.18182H156.193L147.713 32.358C147.306 33.5322 146.752 34.5549 146.051 35.4261C145.36 36.3068 144.484 36.9839 143.423 37.4574C142.363 37.9403 141.084 38.1818 139.588 38.1818Z" fill="#FF711D"/>
</svg>
