<svg width="17" height="17" viewBox="0 0 17 17" fill="none" xmlns="http://www.w3.org/2000/svg">
<path d="M16.5 8.67753C16.5 8.01976 16.4455 7.53976 16.3276 7.04199H8.66327V10.0108H13.1621C13.0714 10.7486 12.5816 11.8597 11.4932 12.6064L11.4779 12.7058L13.9012 14.5455L14.0691 14.562C15.611 13.1664 16.5 11.1131 16.5 8.67753Z" fill="#4285F4"/>
<path d="M8.66266 16.5C10.8667 16.5 12.717 15.7888 14.0685 14.5622L11.4925 12.6066C10.8032 13.0777 9.87804 13.4066 8.66266 13.4066C6.50396 13.4066 4.67179 12.0111 4.01867 10.0822L3.92294 10.0902L1.40313 12.0013L1.37018 12.0911C2.71256 14.7044 5.46991 16.5 8.66266 16.5Z" fill="#576DD6"/>
<path d="M4.01922 10.0822C3.84689 9.58446 3.74716 9.05109 3.74716 8.50001C3.74716 7.94887 3.84689 7.41555 4.01016 6.91779L4.00559 6.81177L1.4542 4.86996L1.37072 4.90888C0.817462 5.99333 0.5 7.21113 0.5 8.50001C0.5 9.78889 0.817462 11.0066 1.37072 12.0911L4.01922 10.0822Z" fill="#FBBC05"/>
<path d="M8.6627 3.5933C10.1956 3.5933 11.2295 4.24218 11.8191 4.78444L14.123 2.57999C12.7081 1.29111 10.8667 0.5 8.6627 0.5C5.46994 0.5 2.71257 2.29553 1.37018 4.90884L4.00962 6.91775C4.67181 4.98887 6.50399 3.5933 8.6627 3.5933Z" fill="#EB4335"/>
</svg>
